<svg xmlns="http://www.w3.org/2000/svg" xmlns:xlink="http://www.w3.org/1999/xlink" width="540" height="233.68"><rect width="540" height="233.68" rx="5" ry="5" class="a"/><svg y="0%" x="0%"><circle cx="20" cy="20" r="6" fill="#ff5f58"/><circle cx="40" cy="20" r="6" fill="#ffbd2e"/><circle cx="60" cy="20" r="6" fill="#18c132"/></svg><svg height="173.68" viewBox="0 0 50 17.368" width="500" x="15" xmlns="http://www.w3.org/2000/svg" xmlns:xlink="http://www.w3.org/1999/xlink" y="50"><style>@keyframes l{0%{transform:translateX(-50px)}2%{transform:translateX(-100px)}4%{transform:translateX(-150px)}5.9%{transform:translateX(-200px)}7.9%{transform:translateX(-250px)}9.9%{transform:translateX(-300px)}11.8%{transform:translateX(-350px)}13.7%{transform:translateX(-400px)}15.6%{transform:translateX(-450px)}17.6%{transform:translateX(-500px)}19.6%{transform:translateX(-550px)}21.5%{transform:translateX(-600px)}23.4%{transform:translateX(-650px)}25.4%{transform:translateX(-700px)}27.4%{transform:translateX(-750px)}29.3%{transform:translateX(-800px)}31.3%{transform:translateX(-850px)}33.2%{transform:translateX(-900px)}35.1%{transform:translateX(-950px)}37.1%{transform:translateX(-1000px)}39.1%{transform:translateX(-1050px)}41.1%{transform:translateX(-1100px)}43.1%{transform:translateX(-1150px)}45%{transform:translateX(-1200px)}46.9%{transform:translateX(-1250px)}48.9%{transform:translateX(-1300px)}50.8%{transform:translateX(-1350px)}52.8%{transform:translateX(-1400px)}54.8%{transform:translateX(-1450px)}56.8%{transform:translateX(-1500px)}58.8%{transform:translateX(-1550px)}60.8%{transform:translateX(-1600px)}62.7%{transform:translateX(-1650px)}64.7%{transform:translateX(-1700px)}66.6%{transform:translateX(-1750px)}68.6%{transform:translateX(-1800px)}70.6%{transform:translateX(-1850px)}72.5%{transform:translateX(-1900px)}74.5%{transform:translateX(-1950px)}76.5%{transform:translateX(-2000px)}78.4%{transform:translateX(-2050px)}80.4%{transform:translateX(-2100px)}82.4%{transform:translateX(-2150px)}84.3%{transform:translateX(-2200px)}86.3%{transform:translateX(-2250px)}88.2%{transform:translateX(-2300px)}90.2%{transform:translateX(-2350px)}92.1%{transform:translateX(-2400px)}94.1%{transform:translateX(-2450px)}96%{transform:translateX(-2500px)}97.9%{transform:translateX(-2550px)}99.9%{transform:translateX(-2650px)}to{transform:translateX(-2700px)}}.a{fill:#282a36}.h{fill:#5af78e;white-space:pre}</style><g font-family="Monaco,Consolas,Menlo,'Bitstream Vera Sans Mono','Powerline Symbols',monospace" font-size="1.67"><defs><symbol id="1"><text y="1.67" style="white-space:pre" fill="#57c7ff">~/Projects/ink</text></symbol><symbol id="2"><text y="1.67" style="white-space:pre" fill="#ff6ac1">â¯</text><text x="2.004" y="1.67" class="h">node</text><text x="7.014" y="1.67" style="white-space:pre" fill="#eff0eb">media/example</text></symbol><symbol id="3"><text y="1.67" class="h">50</text><text x="3.006" y="1.67" class="h">tests</text><text x="9.018" y="1.67" class="h">passed</text></symbol><symbol id="a"><path fill="transparent" d="M0 0h50v9H0z"/></symbol><symbol id="b"><path fill="#eaeaea" d="M0 0h1.102v2.171H0z"/></symbol></defs><path class="a" d="M0 0h50v17.368H0z"/><g style="animation-duration:5.264045s;animation-iteration-count:infinite;animation-name:l;animation-timing-function:steps(1,end)"><svg width="2750"><svg><use xlink:href="#a"/></svg><svg x="50"><use xlink:href="#a"/><use xlink:href="#1"/><use xlink:href="#2" y="2.171"/><text y="6.012" class="h">0</text><text x="2.004" y="6.012" class="h">tests</text><text x="8.016" y="6.012" class="h">passed</text></svg><svg x="100"><use xlink:href="#a"/><use xlink:href="#1"/><use xlink:href="#2" y="2.171"/><text y="6.012" class="h">1</text><text x="2.004" y="6.012" class="h">tests</text><text x="8.016" y="6.012" class="h">passed</text></svg><svg x="150"><use xlink:href="#a"/><use xlink:href="#1"/><use xlink:href="#2" y="2.171"/><text y="6.012" class="h">2</text><text x="2.004" y="6.012" class="h">tests</text><text x="8.016" y="6.012" class="h">passed</text></svg><svg x="200"><use xlink:href="#a"/><use xlink:href="#1"/><use xlink:href="#2" y="2.171"/><text y="6.012" class="h">3</text><text x="2.004" y="6.012" class="h">tests</text><text x="8.016" y="6.012" class="h">passed</text></svg><svg x="250"><use xlink:href="#a"/><use xlink:href="#1"/><use xlink:href="#2" y="2.171"/><text y="6.012" class="h">4</text><text x="2.004" y="6.012" class="h">tests</text><text x="8.016" y="6.012" class="h">passed</text></svg><svg x="300"><use xlink:href="#a"/><use xlink:href="#1"/><use xlink:href="#2" y="2.171"/><text y="6.012" class="h">5</text><text x="2.004" y="6.012" class="h">tests</text><text x="8.016" y="6.012" class="h">passed</text></svg><svg x="350"><use xlink:href="#a"/><use xlink:href="#1"/><use xlink:href="#2" y="2.171"/><text y="6.012" class="h">6</text><text x="2.004" y="6.012" class="h">tests</text><text x="8.016" y="6.012" class="h">passed</text></svg><svg x="400"><use xlink:href="#a"/><use xlink:href="#1"/><use xlink:href="#2" y="2.171"/><text y="6.012" class="h">7</text><text x="2.004" y="6.012" class="h">tests</text><text x="8.016" y="6.012" class="h">passed</text></svg><svg x="450"><use xlink:href="#a"/><use xlink:href="#1"/><use xlink:href="#2" y="2.171"/><text y="6.012" class="h">8</text><text x="2.004" y="6.012" class="h">tests</text><text x="8.016" y="6.012" class="h">passed</text></svg><svg x="500"><use xlink:href="#a"/><use xlink:href="#1"/><use xlink:href="#2" y="2.171"/><text y="6.012" class="h">9</text><text x="2.004" y="6.012" class="h">tests</text><text x="8.016" y="6.012" class="h">passed</text></svg><svg x="550"><use xlink:href="#a"/><use xlink:href="#1"/><use xlink:href="#2" y="2.171"/><text y="6.012" class="h">10</text><text x="3.006" y="6.012" class="h">tests</text><text x="9.018" y="6.012" class="h">passed</text></svg><svg x="600"><use xlink:href="#a"/><use xlink:href="#1"/><use xlink:href="#2" y="2.171"/><text y="6.012" class="h">11</text><text x="3.006" y="6.012" class="h">tests</text><text x="9.018" y="6.012" class="h">passed</text></svg><svg x="650"><use xlink:href="#a"/><use xlink:href="#1"/><use xlink:href="#2" y="2.171"/><text y="6.012" class="h">12</text><text x="3.006" y="6.012" class="h">tests</text><text x="9.018" y="6.012" class="h">passed</text></svg><svg x="700"><use xlink:href="#a"/><use xlink:href="#1"/><use xlink:href="#2" y="2.171"/><text y="6.012" class="h">13</text><text x="3.006" y="6.012" class="h">tests</text><text x="9.018" y="6.012" class="h">passed</text></svg><svg x="750"><use xlink:href="#a"/><use xlink:href="#1"/><use xlink:href="#2" y="2.171"/><text y="6.012" class="h">14</text><text x="3.006" y="6.012" class="h">tests</text><text x="9.018" y="6.012" class="h">passed</text></svg><svg x="800"><use xlink:href="#a"/><use xlink:href="#1"/><use xlink:href="#2" y="2.171"/><text y="6.012" class="h">15</text><text x="3.006" y="6.012" class="h">tests</text><text x="9.018" y="6.012" class="h">passed</text></svg><svg x="850"><use xlink:href="#a"/><use xlink:href="#1"/><use xlink:href="#2" y="2.171"/><text y="6.012" class="h">16</text><text x="3.006" y="6.012" class="h">tests</text><text x="9.018" y="6.012" class="h">passed</text></svg><svg x="900"><use xlink:href="#a"/><use xlink:href="#1"/><use xlink:href="#2" y="2.171"/><text y="6.012" class="h">17</text><text x="3.006" y="6.012" class="h">tests</text><text x="9.018" y="6.012" class="h">passed</text></svg><svg x="950"><use xlink:href="#a"/><use xlink:href="#1"/><use xlink:href="#2" y="2.171"/><text y="6.012" class="h">18</text><text x="3.006" y="6.012" class="h">tests</text><text x="9.018" y="6.012" class="h">passed</text></svg><svg x="1000"><use xlink:href="#a"/><use xlink:href="#1"/><use xlink:href="#2" y="2.171"/><text y="6.012" class="h">19</text><text x="3.006" y="6.012" class="h">tests</text><text x="9.018" y="6.012" class="h">passed</text></svg><svg x="1050"><use xlink:href="#a"/><use xlink:href="#1"/><use xlink:href="#2" y="2.171"/><text y="6.012" class="h">20</text><text x="3.006" y="6.012" class="h">tests</text><text x="9.018" y="6.012" class="h">passed</text></svg><svg x="1100"><use xlink:href="#a"/><use xlink:href="#1"/><use xlink:href="#2" y="2.171"/><text y="6.012" class="h">21</text><text x="3.006" y="6.012" class="h">tests</text><text x="9.018" y="6.012" class="h">passed</text></svg><svg x="1150"><use xlink:href="#a"/><use xlink:href="#1"/><use xlink:href="#2" y="2.171"/><text y="6.012" class="h">22</text><text x="3.006" y="6.012" class="h">tests</text><text x="9.018" y="6.012" class="h">passed</text></svg><svg x="1200"><use xlink:href="#a"/><use xlink:href="#1"/><use xlink:href="#2" y="2.171"/><text y="6.012" class="h">23</text><text x="3.006" y="6.012" class="h">tests</text><text x="9.018" y="6.012" class="h">passed</text></svg><svg x="1250"><use xlink:href="#a"/><use xlink:href="#1"/><use xlink:href="#2" y="2.171"/><text y="6.012" class="h">24</text><text x="3.006" y="6.012" class="h">tests</text><text x="9.018" y="6.012" class="h">passed</text></svg><svg x="1300"><use xlink:href="#a"/><use xlink:href="#1"/><use xlink:href="#2" y="2.171"/><text y="6.012" class="h">25</text><text x="3.006" y="6.012" class="h">tests</text><text x="9.018" y="6.012" class="h">passed</text></svg><svg x="1350"><use xlink:href="#a"/><use xlink:href="#1"/><use xlink:href="#2" y="2.171"/><text y="6.012" class="h">26</text><text x="3.006" y="6.012" class="h">tests</text><text x="9.018" y="6.012" class="h">passed</text></svg><svg x="1400"><use xlink:href="#a"/><use xlink:href="#1"/><use xlink:href="#2" y="2.171"/><text y="6.012" class="h">27</text><text x="3.006" y="6.012" class="h">tests</text><text x="9.018" y="6.012" class="h">passed</text></svg><svg x="1450"><use xlink:href="#a"/><use xlink:href="#1"/><use xlink:href="#2" y="2.171"/><text y="6.012" class="h">28</text><text x="3.006" y="6.012" class="h">tests</text><text x="9.018" y="6.012" class="h">passed</text></svg><svg x="1500"><use xlink:href="#a"/><use xlink:href="#1"/><use xlink:href="#2" y="2.171"/><text y="6.012" class="h">29</text><text x="3.006" y="6.012" class="h">tests</text><text x="9.018" y="6.012" class="h">passed</text></svg><svg x="1550"><use xlink:href="#a"/><use xlink:href="#1"/><use xlink:href="#2" y="2.171"/><text y="6.012" class="h">30</text><text x="3.006" y="6.012" class="h">tests</text><text x="9.018" y="6.012" class="h">passed</text></svg><svg x="1600"><use xlink:href="#a"/><use xlink:href="#1"/><use xlink:href="#2" y="2.171"/><text y="6.012" class="h">31</text><text x="3.006" y="6.012" class="h">tests</text><text x="9.018" y="6.012" class="h">passed</text></svg><svg x="1650"><use xlink:href="#a"/><use xlink:href="#1"/><use xlink:href="#2" y="2.171"/><text y="6.012" class="h">32</text><text x="3.006" y="6.012" class="h">tests</text><text x="9.018" y="6.012" class="h">passed</text></svg><svg x="1700"><use xlink:href="#a"/><use xlink:href="#1"/><use xlink:href="#2" y="2.171"/><text y="6.012" class="h">33</text><text x="3.006" y="6.012" class="h">tests</text><text x="9.018" y="6.012" class="h">passed</text></svg><svg x="1750"><use xlink:href="#a"/><use xlink:href="#1"/><use xlink:href="#2" y="2.171"/><text y="6.012" class="h">34</text><text x="3.006" y="6.012" class="h">tests</text><text x="9.018" y="6.012" class="h">passed</text></svg><svg x="1800"><use xlink:href="#a"/><use xlink:href="#1"/><use xlink:href="#2" y="2.171"/><text y="6.012" class="h">35</text><text x="3.006" y="6.012" class="h">tests</text><text x="9.018" y="6.012" class="h">passed</text></svg><svg x="1850"><use xlink:href="#a"/><use xlink:href="#1"/><use xlink:href="#2" y="2.171"/><text y="6.012" class="h">36</text><text x="3.006" y="6.012" class="h">tests</text><text x="9.018" y="6.012" class="h">passed</text></svg><svg x="1900"><use xlink:href="#a"/><use xlink:href="#1"/><use xlink:href="#2" y="2.171"/><text y="6.012" class="h">37</text><text x="3.006" y="6.012" class="h">tests</text><text x="9.018" y="6.012" class="h">passed</text></svg><svg x="1950"><use xlink:href="#a"/><use xlink:href="#1"/><use xlink:href="#2" y="2.171"/><text y="6.012" class="h">38</text><text x="3.006" y="6.012" class="h">tests</text><text x="9.018" y="6.012" class="h">passed</text></svg><svg x="2000"><use xlink:href="#a"/><use xlink:href="#1"/><use xlink:href="#2" y="2.171"/><text y="6.012" class="h">39</text><text x="3.006" y="6.012" class="h">tests</text><text x="9.018" y="6.012" class="h">passed</text></svg><svg x="2050"><use xlink:href="#a"/><use xlink:href="#1"/><use xlink:href="#2" y="2.171"/><text y="6.012" class="h">40</text><text x="3.006" y="6.012" class="h">tests</text><text x="9.018" y="6.012" class="h">passed</text></svg><svg x="2100"><use xlink:href="#a"/><use xlink:href="#1"/><use xlink:href="#2" y="2.171"/><text y="6.012" class="h">41</text><text x="3.006" y="6.012" class="h">tests</text><text x="9.018" y="6.012" class="h">passed</text></svg><svg x="2150"><use xlink:href="#a"/><use xlink:href="#1"/><use xlink:href="#2" y="2.171"/><text y="6.012" class="h">42</text><text x="3.006" y="6.012" class="h">tests</text><text x="9.018" y="6.012" class="h">passed</text></svg><svg x="2200"><use xlink:href="#a"/><use xlink:href="#1"/><use xlink:href="#2" y="2.171"/><text y="6.012" class="h">43</text><text x="3.006" y="6.012" class="h">tests</text><text x="9.018" y="6.012" class="h">passed</text></svg><svg x="2250"><use xlink:href="#a"/><use xlink:href="#1"/><use xlink:href="#2" y="2.171"/><text y="6.012" class="h">44</text><text x="3.006" y="6.012" class="h">tests</text><text x="9.018" y="6.012" class="h">passed</text></svg><svg x="2300"><use xlink:href="#a"/><use xlink:href="#1"/><use xlink:href="#2" y="2.171"/><text y="6.012" class="h">45</text><text x="3.006" y="6.012" class="h">tests</text><text x="9.018" y="6.012" class="h">passed</text></svg><svg x="2350"><use xlink:href="#a"/><use xlink:href="#1"/><use xlink:href="#2" y="2.171"/><text y="6.012" class="h">46</text><text x="3.006" y="6.012" class="h">tests</text><text x="9.018" y="6.012" class="h">passed</text></svg><svg x="2400"><use xlink:href="#a"/><use xlink:href="#1"/><use xlink:href="#2" y="2.171"/><text y="6.012" class="h">47</text><text x="3.006" y="6.012" class="h">tests</text><text x="9.018" y="6.012" class="h">passed</text></svg><svg x="2450"><use xlink:href="#a"/><use xlink:href="#1"/><use xlink:href="#2" y="2.171"/><text y="6.012" class="h">48</text><text x="3.006" y="6.012" class="h">tests</text><text x="9.018" y="6.012" class="h">passed</text></svg><svg x="2500"><use xlink:href="#a"/><use xlink:href="#1"/><use xlink:href="#2" y="2.171"/><text y="6.012" class="h">49</text><text x="3.006" y="6.012" class="h">tests</text><text x="9.018" y="6.012" class="h">passed</text></svg><svg x="2550"><use xlink:href="#a"/><use xlink:href="#1"/><use xlink:href="#2" y="2.171"/><use xlink:href="#3" y="4.342"/></svg><svg x="2600"><use xlink:href="#a"/><use xlink:href="#b" x="-.004" y="6.488"/><use xlink:href="#1"/><use xlink:href="#2" y="2.171"/><use xlink:href="#3" y="4.342"/></svg><svg x="2650"><use xlink:href="#a"/><use xlink:href="#b" x="-.004" y="6.488"/><use xlink:href="#1"/><use xlink:href="#2" y="2.171"/><use xlink:href="#3" y="4.342"/></svg><svg x="2700"><use xlink:href="#a"/><use xlink:href="#b" x="-.004" y="6.488"/><use xlink:href="#1"/><use xlink:href="#2" y="2.171"/><use xlink:href="#3" y="4.342"/></svg></svg></g></g></svg></svg>