<svg xmlns="http://www.w3.org/2000/svg" xmlns:xlink="http://www.w3.org/1999/xlink" width="540" height="233.68"><rect width="540" height="233.68" rx="5" ry="5" class="a"/><svg y="0%" x="0%"><circle cx="20" cy="20" r="6" fill="#ff5f58"/><circle cx="40" cy="20" r="6" fill="#ffbd2e"/><circle cx="60" cy="20" r="6" fill="#18c132"/></svg><svg height="173.68" viewBox="0 0 50 17.368" width="500" x="15" xmlns="http://www.w3.org/2000/svg" xmlns:xlink="http://www.w3.org/1999/xlink" y="50"><style>@keyframes l{0%{transform:translateX(-50px)}2.1%{transform:translateX(-150px)}4%{transform:translateX(-250px)}5.9%{transform:translateX(-350px)}7.9%{transform:translateX(-450px)}9.8%{transform:translateX(-550px)}11.9%{transform:translateX(-650px)}13.8%{transform:translateX(-750px)}15.7%{transform:translateX(-850px)}17.7%{transform:translateX(-950px)}19.6%{transform:translateX(-1050px)}21.5%{transform:translateX(-1100px)}21.6%{transform:translateX(-1150px)}23.6%{transform:translateX(-1250px)}25.5%{transform:translateX(-1350px)}27.4%{transform:translateX(-1450px)}29.4%{transform:translateX(-1550px)}31.3%{transform:translateX(-1650px)}33.4%{transform:translateX(-1750px)}35.4%{transform:translateX(-1850px)}37.3%{transform:translateX(-1900px)}37.4%{transform:translateX(-1950px)}39.3%{transform:translateX(-2050px)}41.2%{transform:translateX(-2150px)}43.2%{transform:translateX(-2250px)}45.1%{transform:translateX(-2350px)}47.1%{transform:translateX(-2450px)}49%{transform:translateX(-2500px)}49.1%{transform:translateX(-2550px)}51%{transform:translateX(-2600px)}51.2%{transform:translateX(-2650px)}53.1%{transform:translateX(-2750px)}55.1%{transform:translateX(-2850px)}57.2%{transform:translateX(-2950px)}59%{transform:translateX(-3000px)}59.1%{transform:translateX(-3050px)}61.1%{transform:translateX(-3150px)}62.9%{transform:translateX(-3250px)}64.9%{transform:translateX(-3350px)}66.8%{transform:translateX(-3450px)}68.7%{transform:translateX(-3550px)}70.7%{transform:translateX(-3650px)}72.8%{transform:translateX(-3750px)}74.7%{transform:translateX(-3850px)}76.7%{transform:translateX(-3950px)}78.6%{transform:translateX(-4050px)}80.5%{transform:translateX(-4150px)}82.5%{transform:translateX(-4250px)}84.4%{transform:translateX(-4350px)}86.4%{transform:translateX(-4450px)}88.3%{transform:translateX(-4550px)}90.3%{transform:translateX(-4650px)}92.2%{transform:translateX(-4750px)}94.1%{transform:translateX(-4800px)}94.2%{transform:translateX(-4850px)}96.1%{transform:translateX(-4950px)}98.1%{transform:translateX(-5000px)}to{transform:translateX(-5050px)}}.a{fill:#1e1f29}.h{fill:#50fb7c}</style><g font-size="1.67" font-family="Monaco,Consolas,Menlo,'Bitstream Vera Sans Mono','Powerline Symbols',monospace"><defs><symbol id="1"><text y="1.67" fill="#49baff">~/Projects/ink</text></symbol><symbol id="2"><text y="1.67" fill="#fc4346">λ</text><text x="2.004" y="1.67" class="h">node</text><text x="7.014" y="1.67" fill="#ebece6">media/example</text></symbol><symbol id="3"><text y="1.67" class="h">0</text><text x="2.004" y="1.67" class="h">tests</text><text x="8.016" y="1.67" class="h">passed</text></symbol><symbol id="4"><text y="1.67" class="h">1</text><text x="2.004" y="1.67" class="h">tests</text><text x="8.016" y="1.67" class="h">passed</text></symbol><symbol id="5"><text y="1.67" class="h">2</text><text x="2.004" y="1.67" class="h">tests</text><text x="8.016" y="1.67" class="h">passed</text></symbol><symbol id="6"><text y="1.67" class="h">3</text><text x="2.004" y="1.67" class="h">tests</text><text x="8.016" y="1.67" class="h">passed</text></symbol><symbol id="7"><text y="1.67" class="h">4</text><text x="2.004" y="1.67" class="h">tests</text><text x="8.016" y="1.67" class="h">passed</text></symbol><symbol id="8"><text y="1.67" class="h">5</text><text x="2.004" y="1.67" class="h">tests</text><text x="8.016" y="1.67" class="h">passed</text></symbol><symbol id="9"><text y="1.67" class="h">6</text><text x="2.004" y="1.67" class="h">tests</text><text x="8.016" y="1.67" class="h">passed</text></symbol><symbol id="10"><text y="1.67" class="h">7</text><text x="2.004" y="1.67" class="h">tests</text><text x="8.016" y="1.67" class="h">passed</text></symbol><symbol id="11"><text y="1.67" class="h">8</text><text x="2.004" y="1.67" class="h">tests</text><text x="8.016" y="1.67" class="h">passed</text></symbol><symbol id="12"><text y="1.67" class="h">9</text><text x="2.004" y="1.67" class="h">tests</text><text x="8.016" y="1.67" class="h">passed</text></symbol><symbol id="13"><text y="1.67" class="h">10</text><text x="3.006" y="1.67" class="h">tests</text><text x="9.018" y="1.67" class="h">passed</text></symbol><symbol id="14"><text y="1.67" class="h">11</text><text x="3.006" y="1.67" class="h">tests</text><text x="9.018" y="1.67" class="h">passed</text></symbol><symbol id="15"><text y="1.67" class="h">12</text><text x="3.006" y="1.67" class="h">tests</text><text x="9.018" y="1.67" class="h">passed</text></symbol><symbol id="16"><text y="1.67" class="h">13</text><text x="3.006" y="1.67" class="h">tests</text><text x="9.018" y="1.67" class="h">passed</text></symbol><symbol id="17"><text y="1.67" class="h">14</text><text x="3.006" y="1.67" class="h">tests</text><text x="9.018" y="1.67" class="h">passed</text></symbol><symbol id="18"><text y="1.67" class="h">15</text><text x="3.006" y="1.67" class="h">tests</text><text x="9.018" y="1.67" class="h">passed</text></symbol><symbol id="19"><text y="1.67" class="h">16</text><text x="3.006" y="1.67" class="h">tests</text><text x="9.018" y="1.67" class="h">passed</text></symbol><symbol id="20"><text y="1.67" class="h">17</text><text x="3.006" y="1.67" class="h">tests</text><text x="9.018" y="1.67" class="h">passed</text></symbol><symbol id="21"><text y="1.67" class="h">18</text><text x="3.006" y="1.67" class="h">tests</text><text x="9.018" y="1.67" class="h">passed</text></symbol><symbol id="22"><text y="1.67" class="h">19</text><text x="3.006" y="1.67" class="h">tests</text><text x="9.018" y="1.67" class="h">passed</text></symbol><symbol id="23"><text y="1.67" class="h">20</text><text x="3.006" y="1.67" class="h">tests</text><text x="9.018" y="1.67" class="h">passed</text></symbol><symbol id="24"><text y="1.67" class="h">21</text><text x="3.006" y="1.67" class="h">tests</text><text x="9.018" y="1.67" class="h">passed</text></symbol><symbol id="25"><text y="1.67" class="h">22</text><text x="3.006" y="1.67" class="h">tests</text><text x="9.018" y="1.67" class="h">passed</text></symbol><symbol id="26"><text y="1.67" class="h">23</text><text x="3.006" y="1.67" class="h">tests</text><text x="9.018" y="1.67" class="h">passed</text></symbol><symbol id="27"><text y="1.67" class="h">24</text><text x="3.006" y="1.67" class="h">tests</text><text x="9.018" y="1.67" class="h">passed</text></symbol><symbol id="28"><text y="1.67" class="h">25</text><text x="3.006" y="1.67" class="h">tests</text><text x="9.018" y="1.67" class="h">passed</text></symbol><symbol id="29"><text y="1.67" class="h">26</text><text x="3.006" y="1.67" class="h">tests</text><text x="9.018" y="1.67" class="h">passed</text></symbol><symbol id="30"><text y="1.67" class="h">27</text><text x="3.006" y="1.67" class="h">tests</text><text x="9.018" y="1.67" class="h">passed</text></symbol><symbol id="31"><text y="1.67" class="h">28</text><text x="3.006" y="1.67" class="h">tests</text><text x="9.018" y="1.67" class="h">passed</text></symbol><symbol id="32"><text y="1.67" class="h">29</text><text x="3.006" y="1.67" class="h">tests</text><text x="9.018" y="1.67" class="h">passed</text></symbol><symbol id="33"><text y="1.67" class="h">30</text><text x="3.006" y="1.67" class="h">tests</text><text x="9.018" y="1.67" class="h">passed</text></symbol><symbol id="34"><text y="1.67" class="h">31</text><text x="3.006" y="1.67" class="h">tests</text><text x="9.018" y="1.67" class="h">passed</text></symbol><symbol id="35"><text y="1.67" class="h">32</text><text x="3.006" y="1.67" class="h">tests</text><text x="9.018" y="1.67" class="h">passed</text></symbol><symbol id="36"><text y="1.67" class="h">33</text><text x="3.006" y="1.67" class="h">tests</text><text x="9.018" y="1.67" class="h">passed</text></symbol><symbol id="37"><text y="1.67" class="h">34</text><text x="3.006" y="1.67" class="h">tests</text><text x="9.018" y="1.67" class="h">passed</text></symbol><symbol id="38"><text y="1.67" class="h">35</text><text x="3.006" y="1.67" class="h">tests</text><text x="9.018" y="1.67" class="h">passed</text></symbol><symbol id="39"><text y="1.67" class="h">36</text><text x="3.006" y="1.67" class="h">tests</text><text x="9.018" y="1.67" class="h">passed</text></symbol><symbol id="40"><text y="1.67" class="h">37</text><text x="3.006" y="1.67" class="h">tests</text><text x="9.018" y="1.67" class="h">passed</text></symbol><symbol id="41"><text y="1.67" class="h">38</text><text x="3.006" y="1.67" class="h">tests</text><text x="9.018" y="1.67" class="h">passed</text></symbol><symbol id="42"><text y="1.67" class="h">39</text><text x="3.006" y="1.67" class="h">tests</text><text x="9.018" y="1.67" class="h">passed</text></symbol><symbol id="43"><text y="1.67" class="h">40</text><text x="3.006" y="1.67" class="h">tests</text><text x="9.018" y="1.67" class="h">passed</text></symbol><symbol id="44"><text y="1.67" class="h">41</text><text x="3.006" y="1.67" class="h">tests</text><text x="9.018" y="1.67" class="h">passed</text></symbol><symbol id="45"><text y="1.67" class="h">42</text><text x="3.006" y="1.67" class="h">tests</text><text x="9.018" y="1.67" class="h">passed</text></symbol><symbol id="46"><text y="1.67" class="h">43</text><text x="3.006" y="1.67" class="h">tests</text><text x="9.018" y="1.67" class="h">passed</text></symbol><symbol id="47"><text y="1.67" class="h">44</text><text x="3.006" y="1.67" class="h">tests</text><text x="9.018" y="1.67" class="h">passed</text></symbol><symbol id="48"><text y="1.67" class="h">45</text><text x="3.006" y="1.67" class="h">tests</text><text x="9.018" y="1.67" class="h">passed</text></symbol><symbol id="49"><text y="1.67" class="h">46</text><text x="3.006" y="1.67" class="h">tests</text><text x="9.018" y="1.67" class="h">passed</text></symbol><symbol id="50"><text y="1.67" class="h">47</text><text x="3.006" y="1.67" class="h">tests</text><text x="9.018" y="1.67" class="h">passed</text></symbol><symbol id="51"><text y="1.67" class="h">48</text><text x="3.006" y="1.67" class="h">tests</text><text x="9.018" y="1.67" class="h">passed</text></symbol><symbol id="52"><text y="1.67" class="h">50</text><text x="3.006" y="1.67" class="h">tests</text><text x="9.018" y="1.67" class="h">passed</text></symbol><symbol id="a"><path fill="transparent" d="M0 0h50v9H0z"/></symbol><symbol id="b"><path fill="#e4e4e4" d="M0 0h1.102v2.171H0z"/></symbol></defs><path class="a" d="M0 0h50v17.368H0z"/><g style="animation-duration:5.231990999999998s;animation-iteration-count:infinite;animation-name:l;animation-timing-function:steps(1,end)"><svg width="5100"><svg><use xlink:href="#a"/></svg><svg x="50"><use xlink:href="#a"/><use xlink:href="#1" y="2.171"/><use xlink:href="#2" y="4.342"/><use xlink:href="#3" y="6.513"/></svg><svg x="100"><use xlink:href="#a"/><use xlink:href="#1" y="2.171"/><use xlink:href="#2" y="4.342"/><use xlink:href="#3" y="6.513"/></svg><svg x="150"><use xlink:href="#a"/><use xlink:href="#1" y="2.171"/><use xlink:href="#2" y="4.342"/><use xlink:href="#4" y="6.513"/></svg><svg x="200"><use xlink:href="#a"/><use xlink:href="#1" y="2.171"/><use xlink:href="#2" y="4.342"/><use xlink:href="#4" y="6.513"/></svg><svg x="250"><use xlink:href="#a"/><use xlink:href="#1" y="2.171"/><use xlink:href="#2" y="4.342"/><use xlink:href="#5" y="6.513"/></svg><svg x="300"><use xlink:href="#a"/><use xlink:href="#1" y="2.171"/><use xlink:href="#2" y="4.342"/><use xlink:href="#5" y="6.513"/></svg><svg x="350"><use xlink:href="#a"/><use xlink:href="#1" y="2.171"/><use xlink:href="#2" y="4.342"/><use xlink:href="#6" y="6.513"/></svg><svg x="400"><use xlink:href="#a"/><use xlink:href="#1" y="2.171"/><use xlink:href="#2" y="4.342"/><use xlink:href="#6" y="6.513"/></svg><svg x="450"><use xlink:href="#a"/><use xlink:href="#1" y="2.171"/><use xlink:href="#2" y="4.342"/><use xlink:href="#7" y="6.513"/></svg><svg x="500"><use xlink:href="#a"/><use xlink:href="#1" y="2.171"/><use xlink:href="#2" y="4.342"/><use xlink:href="#7" y="6.513"/></svg><svg x="550"><use xlink:href="#a"/><use xlink:href="#1" y="2.171"/><use xlink:href="#2" y="4.342"/><use xlink:href="#8" y="6.513"/></svg><svg x="600"><use xlink:href="#a"/><use xlink:href="#1" y="2.171"/><use xlink:href="#2" y="4.342"/><use xlink:href="#8" y="6.513"/></svg><svg x="650"><use xlink:href="#a"/><use xlink:href="#1" y="2.171"/><use xlink:href="#2" y="4.342"/><use xlink:href="#9" y="6.513"/></svg><svg x="700"><use xlink:href="#a"/><use xlink:href="#1" y="2.171"/><use xlink:href="#2" y="4.342"/><use xlink:href="#9" y="6.513"/></svg><svg x="750"><use xlink:href="#a"/><use xlink:href="#1" y="2.171"/><use xlink:href="#2" y="4.342"/><use xlink:href="#10" y="6.513"/></svg><svg x="800"><use xlink:href="#a"/><use xlink:href="#1" y="2.171"/><use xlink:href="#2" y="4.342"/><use xlink:href="#10" y="6.513"/></svg><svg x="850"><use xlink:href="#a"/><use xlink:href="#1" y="2.171"/><use xlink:href="#2" y="4.342"/><use xlink:href="#11" y="6.513"/></svg><svg x="900"><use xlink:href="#a"/><use xlink:href="#1" y="2.171"/><use xlink:href="#2" y="4.342"/><use xlink:href="#11" y="6.513"/></svg><svg x="950"><use xlink:href="#a"/><use xlink:href="#1" y="2.171"/><use xlink:href="#2" y="4.342"/><use xlink:href="#12" y="6.513"/></svg><svg x="1000"><use xlink:href="#a"/><use xlink:href="#1" y="2.171"/><use xlink:href="#2" y="4.342"/><use xlink:href="#12" y="6.513"/></svg><svg x="1050"><use xlink:href="#a"/><use xlink:href="#1" y="2.171"/><use xlink:href="#2" y="4.342"/><use xlink:href="#13" y="6.513"/></svg><svg x="1100"><use xlink:href="#a"/><use xlink:href="#1" y="2.171"/><use xlink:href="#2" y="4.342"/><use xlink:href="#13" y="6.513"/></svg><svg x="1150"><use xlink:href="#a"/><use xlink:href="#1" y="2.171"/><use xlink:href="#2" y="4.342"/><use xlink:href="#14" y="6.513"/></svg><svg x="1200"><use xlink:href="#a"/><use xlink:href="#1" y="2.171"/><use xlink:href="#2" y="4.342"/><use xlink:href="#14" y="6.513"/></svg><svg x="1250"><use xlink:href="#a"/><use xlink:href="#1" y="2.171"/><use xlink:href="#2" y="4.342"/><use xlink:href="#15" y="6.513"/></svg><svg x="1300"><use xlink:href="#a"/><use xlink:href="#1" y="2.171"/><use xlink:href="#2" y="4.342"/><use xlink:href="#15" y="6.513"/></svg><svg x="1350"><use xlink:href="#a"/><use xlink:href="#1" y="2.171"/><use xlink:href="#2" y="4.342"/><use xlink:href="#16" y="6.513"/></svg><svg x="1400"><use xlink:href="#a"/><use xlink:href="#1" y="2.171"/><use xlink:href="#2" y="4.342"/><use xlink:href="#16" y="6.513"/></svg><svg x="1450"><use xlink:href="#a"/><use xlink:href="#1" y="2.171"/><use xlink:href="#2" y="4.342"/><use xlink:href="#17" y="6.513"/></svg><svg x="1500"><use xlink:href="#a"/><use xlink:href="#1" y="2.171"/><use xlink:href="#2" y="4.342"/><use xlink:href="#17" y="6.513"/></svg><svg x="1550"><use xlink:href="#a"/><use xlink:href="#1" y="2.171"/><use xlink:href="#2" y="4.342"/><use xlink:href="#18" y="6.513"/></svg><svg x="1600"><use xlink:href="#a"/><use xlink:href="#1" y="2.171"/><use xlink:href="#2" y="4.342"/><use xlink:href="#18" y="6.513"/></svg><svg x="1650"><use xlink:href="#a"/><use xlink:href="#1" y="2.171"/><use xlink:href="#2" y="4.342"/><use xlink:href="#19" y="6.513"/></svg><svg x="1700"><use xlink:href="#a"/><use xlink:href="#1" y="2.171"/><use xlink:href="#2" y="4.342"/><use xlink:href="#19" y="6.513"/></svg><svg x="1750"><use xlink:href="#a"/><use xlink:href="#1" y="2.171"/><use xlink:href="#2" y="4.342"/><use xlink:href="#20" y="6.513"/></svg><svg x="1800"><use xlink:href="#a"/><use xlink:href="#1" y="2.171"/><use xlink:href="#2" y="4.342"/><use xlink:href="#20" y="6.513"/></svg><svg x="1850"><use xlink:href="#a"/><use xlink:href="#1" y="2.171"/><use xlink:href="#2" y="4.342"/><use xlink:href="#21" y="6.513"/></svg><svg x="1900"><use xlink:href="#a"/><use xlink:href="#1" y="2.171"/><use xlink:href="#2" y="4.342"/><use xlink:href="#21" y="6.513"/></svg><svg x="1950"><use xlink:href="#a"/><use xlink:href="#1" y="2.171"/><use xlink:href="#2" y="4.342"/><use xlink:href="#22" y="6.513"/></svg><svg x="2000"><use xlink:href="#a"/><use xlink:href="#1" y="2.171"/><use xlink:href="#2" y="4.342"/><use xlink:href="#22" y="6.513"/></svg><svg x="2050"><use xlink:href="#a"/><use xlink:href="#1" y="2.171"/><use xlink:href="#2" y="4.342"/><use xlink:href="#23" y="6.513"/></svg><svg x="2100"><use xlink:href="#a"/><use xlink:href="#1" y="2.171"/><use xlink:href="#2" y="4.342"/><use xlink:href="#23" y="6.513"/></svg><svg x="2150"><use xlink:href="#a"/><use xlink:href="#1" y="2.171"/><use xlink:href="#2" y="4.342"/><use xlink:href="#24" y="6.513"/></svg><svg x="2200"><use xlink:href="#a"/><use xlink:href="#1" y="2.171"/><use xlink:href="#2" y="4.342"/><use xlink:href="#24" y="6.513"/></svg><svg x="2250"><use xlink:href="#a"/><use xlink:href="#1" y="2.171"/><use xlink:href="#2" y="4.342"/><use xlink:href="#25" y="6.513"/></svg><svg x="2300"><use xlink:href="#a"/><use xlink:href="#1" y="2.171"/><use xlink:href="#2" y="4.342"/><use xlink:href="#25" y="6.513"/></svg><svg x="2350"><use xlink:href="#a"/><use xlink:href="#1" y="2.171"/><use xlink:href="#2" y="4.342"/><use xlink:href="#26" y="6.513"/></svg><svg x="2400"><use xlink:href="#a"/><use xlink:href="#1" y="2.171"/><use xlink:href="#2" y="4.342"/><use xlink:href="#26" y="6.513"/></svg><svg x="2450"><use xlink:href="#a"/><use xlink:href="#1" y="2.171"/><use xlink:href="#2" y="4.342"/><use xlink:href="#27" y="6.513"/></svg><svg x="2500"><use xlink:href="#a"/><use xlink:href="#1" y="2.171"/><use xlink:href="#2" y="4.342"/><use xlink:href="#27" y="6.513"/></svg><svg x="2550"><use xlink:href="#a"/><use xlink:href="#1" y="2.171"/><use xlink:href="#2" y="4.342"/><use xlink:href="#28" y="6.513"/></svg><svg x="2600"><use xlink:href="#a"/><use xlink:href="#1" y="2.171"/><use xlink:href="#2" y="4.342"/><use xlink:href="#28" y="6.513"/></svg><svg x="2650"><use xlink:href="#a"/><use xlink:href="#1" y="2.171"/><use xlink:href="#2" y="4.342"/><use xlink:href="#29" y="6.513"/></svg><svg x="2700"><use xlink:href="#a"/><use xlink:href="#1" y="2.171"/><use xlink:href="#2" y="4.342"/><use xlink:href="#29" y="6.513"/></svg><svg x="2750"><use xlink:href="#a"/><use xlink:href="#1" y="2.171"/><use xlink:href="#2" y="4.342"/><use xlink:href="#30" y="6.513"/></svg><svg x="2800"><use xlink:href="#a"/><use xlink:href="#1" y="2.171"/><use xlink:href="#2" y="4.342"/><use xlink:href="#30" y="6.513"/></svg><svg x="2850"><use xlink:href="#a"/><use xlink:href="#1" y="2.171"/><use xlink:href="#2" y="4.342"/><use xlink:href="#31" y="6.513"/></svg><svg x="2900"><use xlink:href="#a"/><use xlink:href="#1" y="2.171"/><use xlink:href="#2" y="4.342"/><use xlink:href="#31" y="6.513"/></svg><svg x="2950"><use xlink:href="#a"/><use xlink:href="#1" y="2.171"/><use xlink:href="#2" y="4.342"/><use xlink:href="#32" y="6.513"/></svg><svg x="3000"><use xlink:href="#a"/><use xlink:href="#1" y="2.171"/><use xlink:href="#2" y="4.342"/><use xlink:href="#32" y="6.513"/></svg><svg x="3050"><use xlink:href="#a"/><use xlink:href="#1" y="2.171"/><use xlink:href="#2" y="4.342"/><use xlink:href="#33" y="6.513"/></svg><svg x="3100"><use xlink:href="#a"/><use xlink:href="#1" y="2.171"/><use xlink:href="#2" y="4.342"/><use xlink:href="#33" y="6.513"/></svg><svg x="3150"><use xlink:href="#a"/><use xlink:href="#1" y="2.171"/><use xlink:href="#2" y="4.342"/><use xlink:href="#34" y="6.513"/></svg><svg x="3200"><use xlink:href="#a"/><use xlink:href="#1" y="2.171"/><use xlink:href="#2" y="4.342"/><use xlink:href="#34" y="6.513"/></svg><svg x="3250"><use xlink:href="#a"/><use xlink:href="#1" y="2.171"/><use xlink:href="#2" y="4.342"/><use xlink:href="#35" y="6.513"/></svg><svg x="3300"><use xlink:href="#a"/><use xlink:href="#1" y="2.171"/><use xlink:href="#2" y="4.342"/><use xlink:href="#35" y="6.513"/></svg><svg x="3350"><use xlink:href="#a"/><use xlink:href="#1" y="2.171"/><use xlink:href="#2" y="4.342"/><use xlink:href="#36" y="6.513"/></svg><svg x="3400"><use xlink:href="#a"/><use xlink:href="#1" y="2.171"/><use xlink:href="#2" y="4.342"/><use xlink:href="#36" y="6.513"/></svg><svg x="3450"><use xlink:href="#a"/><use xlink:href="#1" y="2.171"/><use xlink:href="#2" y="4.342"/><use xlink:href="#37" y="6.513"/></svg><svg x="3500"><use xlink:href="#a"/><use xlink:href="#1" y="2.171"/><use xlink:href="#2" y="4.342"/><use xlink:href="#37" y="6.513"/></svg><svg x="3550"><use xlink:href="#a"/><use xlink:href="#1" y="2.171"/><use xlink:href="#2" y="4.342"/><use xlink:href="#38" y="6.513"/></svg><svg x="3600"><use xlink:href="#a"/><use xlink:href="#1" y="2.171"/><use xlink:href="#2" y="4.342"/><use xlink:href="#38" y="6.513"/></svg><svg x="3650"><use xlink:href="#a"/><use xlink:href="#1" y="2.171"/><use xlink:href="#2" y="4.342"/><use xlink:href="#39" y="6.513"/></svg><svg x="3700"><use xlink:href="#a"/><use xlink:href="#1" y="2.171"/><use xlink:href="#2" y="4.342"/><use xlink:href="#39" y="6.513"/></svg><svg x="3750"><use xlink:href="#a"/><use xlink:href="#1" y="2.171"/><use xlink:href="#2" y="4.342"/><use xlink:href="#40" y="6.513"/></svg><svg x="3800"><use xlink:href="#a"/><use xlink:href="#1" y="2.171"/><use xlink:href="#2" y="4.342"/><use xlink:href="#40" y="6.513"/></svg><svg x="3850"><use xlink:href="#a"/><use xlink:href="#1" y="2.171"/><use xlink:href="#2" y="4.342"/><use xlink:href="#41" y="6.513"/></svg><svg x="3900"><use xlink:href="#a"/><use xlink:href="#1" y="2.171"/><use xlink:href="#2" y="4.342"/><use xlink:href="#41" y="6.513"/></svg><svg x="3950"><use xlink:href="#a"/><use xlink:href="#1" y="2.171"/><use xlink:href="#2" y="4.342"/><use xlink:href="#42" y="6.513"/></svg><svg x="4000"><use xlink:href="#a"/><use xlink:href="#1" y="2.171"/><use xlink:href="#2" y="4.342"/><use xlink:href="#42" y="6.513"/></svg><svg x="4050"><use xlink:href="#a"/><use xlink:href="#1" y="2.171"/><use xlink:href="#2" y="4.342"/><use xlink:href="#43" y="6.513"/></svg><svg x="4100"><use xlink:href="#a"/><use xlink:href="#1" y="2.171"/><use xlink:href="#2" y="4.342"/><use xlink:href="#43" y="6.513"/></svg><svg x="4150"><use xlink:href="#a"/><use xlink:href="#1" y="2.171"/><use xlink:href="#2" y="4.342"/><use xlink:href="#44" y="6.513"/></svg><svg x="4200"><use xlink:href="#a"/><use xlink:href="#1" y="2.171"/><use xlink:href="#2" y="4.342"/><use xlink:href="#44" y="6.513"/></svg><svg x="4250"><use xlink:href="#a"/><use xlink:href="#1" y="2.171"/><use xlink:href="#2" y="4.342"/><use xlink:href="#45" y="6.513"/></svg><svg x="4300"><use xlink:href="#a"/><use xlink:href="#1" y="2.171"/><use xlink:href="#2" y="4.342"/><use xlink:href="#45" y="6.513"/></svg><svg x="4350"><use xlink:href="#a"/><use xlink:href="#1" y="2.171"/><use xlink:href="#2" y="4.342"/><use xlink:href="#46" y="6.513"/></svg><svg x="4400"><use xlink:href="#a"/><use xlink:href="#1" y="2.171"/><use xlink:href="#2" y="4.342"/><use xlink:href="#46" y="6.513"/></svg><svg x="4450"><use xlink:href="#a"/><use xlink:href="#1" y="2.171"/><use xlink:href="#2" y="4.342"/><use xlink:href="#47" y="6.513"/></svg><svg x="4500"><use xlink:href="#a"/><use xlink:href="#1" y="2.171"/><use xlink:href="#2" y="4.342"/><use xlink:href="#47" y="6.513"/></svg><svg x="4550"><use xlink:href="#a"/><use xlink:href="#1" y="2.171"/><use xlink:href="#2" y="4.342"/><use xlink:href="#48" y="6.513"/></svg><svg x="4600"><use xlink:href="#a"/><use xlink:href="#1" y="2.171"/><use xlink:href="#2" y="4.342"/><use xlink:href="#48" y="6.513"/></svg><svg x="4650"><use xlink:href="#a"/><use xlink:href="#1" y="2.171"/><use xlink:href="#2" y="4.342"/><use xlink:href="#49" y="6.513"/></svg><svg x="4700"><use xlink:href="#a"/><use xlink:href="#1" y="2.171"/><use xlink:href="#2" y="4.342"/><use xlink:href="#49" y="6.513"/></svg><svg x="4750"><use xlink:href="#a"/><use xlink:href="#1" y="2.171"/><use xlink:href="#2" y="4.342"/><use xlink:href="#50" y="6.513"/></svg><svg x="4800"><use xlink:href="#a"/><use xlink:href="#1" y="2.171"/><use xlink:href="#2" y="4.342"/><use xlink:href="#50" y="6.513"/></svg><svg x="4850"><use xlink:href="#a"/><use xlink:href="#1" y="2.171"/><use xlink:href="#2" y="4.342"/><use xlink:href="#51" y="6.513"/></svg><svg x="4900"><use xlink:href="#a"/><use xlink:href="#1" y="2.171"/><use xlink:href="#2" y="4.342"/><use xlink:href="#51" y="6.513"/></svg><svg x="4950"><use xlink:href="#a"/><use xlink:href="#1" y="2.171"/><use xlink:href="#2" y="4.342"/><text y="8.183" class="h">49</text><text x="3.006" y="8.183" class="h">tests</text><text x="9.018" y="8.183" class="h">passed</text></svg><svg x="5000"><use xlink:href="#a"/><use xlink:href="#1" y="2.171"/><use xlink:href="#2" y="4.342"/><use xlink:href="#52" y="6.513"/></svg><svg x="5050"><use xlink:href="#a"/><use xlink:href="#b" x="-.004" y="10.83"/><use xlink:href="#1" y="2.171"/><use xlink:href="#2" y="4.342"/><use xlink:href="#52" y="6.513"/></svg></svg></g></g></svg></svg>